<?xml version="1.0" encoding="UTF-8"?>
<svg width="14px" height="14px" viewBox="0 0 14 14" version="1.1" xmlns="http://www.w3.org/2000/svg" xmlns:xlink="http://www.w3.org/1999/xlink">
    <!-- Generator: Sketch 57.1 (83088) - https://sketch.com -->
    <title>添加</title>
    <desc>Created with Sketch.</desc>
    <g id="页面-1" stroke="none" stroke-width="1" fill="none" fill-rule="evenodd">
        <g id="icon" transform="translate(-93.000000, -184.000000)" fill="#364860">
            <g id="添加" transform="translate(93.000000, 184.000000)">
                <path d="M7,0 C10.8659932,0 14,3.13400675 14,7 C14,10.8659932 10.8659932,14 7,14 C3.13400675,14 0,10.8659932 0,7 C0,3.13400675 3.13400675,0 7,0 Z M7,1 C3.6862915,1 1,3.6862915 1,7 C1,10.3137085 3.6862915,13 7,13 C10.3137085,13 13,10.3137085 13,7 C13,3.6862915 10.3137085,1 7,1 Z M6.99654811,4.00787006 C7.27160756,4.00787006 7.4946884,4.1826925 7.4946884,4.39837743 L7.494,6.503 L9.60006436,6.5037534 C9.81583585,6.5037534 9.99057173,6.72683424 9.99057173,7.00189368 C9.99057173,7.27697011 9.81582253,7.49991508 9.60006436,7.49991508 L7.494,7.499 L7.4946884,9.60529105 C7.4946884,9.82106253 7.27160756,9.99579842 6.99654811,9.99579842 C6.72147169,9.99579842 6.49852671,9.82104922 6.49852671,9.60529105 L6.498,7.499 L4.39315075,7.49991508 C4.17747914,7.49991508 4.00264338,7.27695312 4.00264338,7.00189368 C4.00264338,6.72683424 4.17746582,6.5037534 4.39315075,6.5037534 L6.498,6.503 L6.49852671,4.39837743 C6.49852671,4.18270582 6.72148867,4.00787006 6.99654811,4.00787006 Z" id="形状结合"></path>
            </g>
        </g>
    </g>
</svg>