<?xml version="1.0" encoding="UTF-8"?>
<svg width="14px" height="14px" viewBox="0 0 14 14" version="1.1" xmlns="http://www.w3.org/2000/svg" xmlns:xlink="http://www.w3.org/1999/xlink">
    <!-- Generator: Sketch 57.1 (83088) - https://sketch.com -->
    <title>删除</title>
    <desc>Created with Sketch.</desc>
    <g id="页面-1" stroke="none" stroke-width="1" fill="none" fill-rule="evenodd">
        <g id="icon" transform="translate(-161.000000, -148.000000)" fill="#364860">
            <g id="删除" transform="translate(161.000000, 148.000000)">
                <path d="M13.1418875,2.99902768 L0.498158342,2.99902768 C0.223032647,2.99902768 0,2.77606573 0,2.50100628 C0,2.22594684 0.22301566,2.002866 0.498158342,2.002866 L13.5018417,2.00097232 C13.7770948,2.00097232 14,2.22405316 14,2.4991126 C14,2.77418903 13.7770778,2.997134 13.5018417,2.997134 L13.1418875,2.99902768 Z" id="路径" fill-rule="nonzero"></path>
                <path d="M7.59740767,8.59204502 L2.39050737,8.59204502 C2.17483576,8.59204502 2,8.36908306 2,8.09402362 C2,7.81896418 2.17482244,7.59588334 2.39050737,7.59588334 L7.59742099,7.59588334 C7.81319247,7.59588334 7.98792836,7.81896418 7.98792836,8.09402362 C7.98792836,8.36910005 7.81317915,8.59204502 7.59742099,8.59204502 L7.59740767,8.59204502 Z" id="路径" fill-rule="nonzero" transform="translate(4.993964, 8.093964) rotate(90.000000) translate(-4.993964, -8.093964) "></path>
                <path d="M11.5974077,8.59204502 L6.39050737,8.59204502 C6.17483576,8.59204502 6,8.36908306 6,8.09402362 C6,7.81896418 6.17482244,7.59588334 6.39050737,7.59588334 L11.597421,7.59588334 C11.8131925,7.59588334 11.9879284,7.81896418 11.9879284,8.09402362 C11.9879284,8.36910005 11.8131792,8.59204502 11.597421,8.59204502 L11.5974077,8.59204502 Z" id="路径" fill-rule="nonzero" transform="translate(8.993964, 8.093964) rotate(90.000000) translate(-8.993964, -8.093964) "></path>
                <path d="M9.59740767,8.59204502 L4.39050737,8.59204502 C4.17483576,8.59204502 4,8.36908306 4,8.09402362 C4,7.81896418 4.17482244,7.59588334 4.39050737,7.59588334 L9.59742099,7.59588334 C9.81319247,7.59588334 9.98792836,7.81896418 9.98792836,8.09402362 C9.98792836,8.36910005 9.81317915,8.59204502 9.59742099,8.59204502 L9.59740767,8.59204502 Z" id="路径" fill-rule="nonzero" transform="translate(6.993964, 8.093964) rotate(90.000000) translate(-6.993964, -8.093964) "></path>
                <path d="M11,2 C11.5522847,2 12,2.44771525 12,3 L12,13 C12,13.5522847 11.5522847,14 11,14 L3,14 C2.44771525,14 2,13.5522847 2,13 L2,3 C2,2.44771525 2.44771525,2 3,2 L11,2 Z M10.5,3 L3.5,3 C3.22385763,3 3,3.22385763 3,3.5 L3,3.5 L3,12.5 C3,12.7761424 3.22385763,13 3.5,13 L3.5,13 L10.5,13 C10.7761424,13 11,12.7761424 11,12.5 L11,12.5 L11,3.5 C11,3.22385763 10.7761424,3 10.5,3 L10.5,3 Z" id="形状结合"></path>
                <path d="M9,0 C9.55228475,-1.01453063e-16 10,0.44771525 10,1 L10,2 C10,2.55228475 9.55228475,3 9,3 L8.5,3 C8.77614237,3 9,2.77614237 9,2.5 L9,2.5 L9,1.5 C9,1.22385763 8.77614237,1 8.5,1 L8.5,1 L5.5,1 C5.22385763,1 5,1.22385763 5,1.5 L5,1.5 L5,2.5 C5,2.77614237 5.22385763,3 5.5,3 L5.5,3 L5,3 C4.44771525,3 4,2.55228475 4,2 L4,1 C4,0.44771525 4.44771525,1.01453063e-16 5,0 L9,0 Z" id="形状结合"></path>
            </g>
        </g>
    </g>
</svg>