<?xml version="1.0" encoding="UTF-8"?>
<svg width="126px" height="38px" viewBox="0 0 126 38" version="1.1" xmlns="http://www.w3.org/2000/svg" xmlns:xlink="http://www.w3.org/1999/xlink">
    <!-- Generator: Sketch 57.1 (83088) - https://sketch.com -->
    <title>logo</title>
    <desc>Created with Sketch.</desc>
    <defs>
        <linearGradient x1="50.0199336%" y1="100.592976%" x2="50.0199336%" y2="0.579918955%" id="linearGradient-1">
            <stop stop-color="#E8380D" offset="0%"></stop>
            <stop stop-color="#E84809" offset="13.81%"></stop>
            <stop stop-color="#E86A00" offset="39.73%"></stop>
            <stop stop-color="#E99800" offset="74.67%"></stop>
            <stop stop-color="#E9B800" offset="100%"></stop>
        </linearGradient>
        <linearGradient x1="50.0035149%" y1="-37.0050744%" x2="50.0035149%" y2="41.1434371%" id="linearGradient-2">
            <stop stop-color="#E8380D" offset="0%"></stop>
            <stop stop-color="#E9480D" offset="12.18%"></stop>
            <stop stop-color="#ED6B12" offset="35.05%"></stop>
            <stop stop-color="#F49D23" offset="66.14%"></stop>
            <stop stop-color="#FDD23E" offset="100%"></stop>
        </linearGradient>
        <linearGradient x1="50.0151229%" y1="-32.0912548%" x2="50.0151229%" y2="86.443346%" id="linearGradient-3">
            <stop stop-color="#E8380D" offset="0%"></stop>
            <stop stop-color="#E9480D" offset="12.18%"></stop>
            <stop stop-color="#ED6B12" offset="35.05%"></stop>
            <stop stop-color="#F49D23" offset="66.14%"></stop>
            <stop stop-color="#FDD23E" offset="100%"></stop>
        </linearGradient>
        <linearGradient x1="95.0510187%" y1="70.5142853%" x2="-4.75736336%" y2="23.79572%" id="linearGradient-4">
            <stop stop-color="#FFF33F" offset="0%"></stop>
            <stop stop-color="#FFEA31" offset="23.71%"></stop>
            <stop stop-color="#F3D000" offset="67.4%"></stop>
            <stop stop-color="#E9B800" offset="100%"></stop>
        </linearGradient>
        <linearGradient x1="50.0014563%" y1="-0.00762187316%" x2="50.0014563%" y2="100.00666%" id="linearGradient-5">
            <stop stop-color="#FFF33F" offset="0%"></stop>
            <stop stop-color="#FFEA31" offset="23.71%"></stop>
            <stop stop-color="#F3D000" offset="67.4%"></stop>
            <stop stop-color="#E9B800" offset="100%"></stop>
        </linearGradient>
        <linearGradient x1="99.2902892%" y1="49.9661586%" x2="-44.4824926%" y2="49.9661586%" id="linearGradient-6">
            <stop stop-color="#E8380D" offset="0%"></stop>
            <stop stop-color="#E84809" offset="13.81%"></stop>
            <stop stop-color="#E86A00" offset="39.73%"></stop>
            <stop stop-color="#E99800" offset="74.67%"></stop>
            <stop stop-color="#E9B800" offset="100%"></stop>
        </linearGradient>
        <linearGradient x1="56.6155675%" y1="93.2400235%" x2="45.0989289%" y2="17.9568662%" id="linearGradient-7">
            <stop stop-color="#FFF33F" offset="0%"></stop>
            <stop stop-color="#FFEA31" offset="23.71%"></stop>
            <stop stop-color="#F3D000" offset="67.4%"></stop>
            <stop stop-color="#E9B800" offset="100%"></stop>
        </linearGradient>
    </defs>
    <g id="页面-1" stroke="none" stroke-width="1" fill="none" fill-rule="evenodd">
        <g id="经典场景设计" transform="translate(-26.000000, -5.000000)" fill-rule="nonzero">
            <g id="主导航">
                <g id="logo" transform="translate(26.000000, 5.000000)">
                    <polygon id="路径" fill="url(#linearGradient-1)" points="7.05333333 23.1026667 7.05333333 37.9093333 13.0733333 37.9093333 13.0733333 24.4893333"></polygon>
                    <path d="M23.24,5.396 C14.3,5.396 7.05333333,12.6426667 7.05333333,21.5893333 C7.05333333,30.5293333 14.3,37.776 23.24,37.776 C32.18,37.776 39.4266713,30.5293333 39.4266713,21.5893333 C39.4333333,12.6426667 32.1866667,5.396 23.24,5.396 Z M23.24,31.756 C17.6266667,31.756 13.0733333,27.2026667 13.0733333,21.5893333 C13.0733333,15.976 17.6266667,11.4226667 23.24,11.4226667 C28.8533333,11.4226667 33.4066667,15.976 33.4066667,21.5893333 C33.4066667,27.2026667 28.86,31.756 23.24,31.756 Z" id="形状" fill="#FFF33F"></path>
                    <polygon id="路径" fill="url(#linearGradient-2)" points="7.05333333 3.516 3.26 5.56933333 7.05333333 23.2226667"></polygon>
                    <polygon id="路径" fill="url(#linearGradient-3)" points="3.26 5.56933333 7.10542736e-15 7.42933333 7.05333333 23.1026667"></polygon>
                    <path d="M13.9733333,25.7626667 C13.9733333,25.7626667 16.6266667,36.5426667 23.2333333,37.7226667 C29.84,38.9026667 28.8066667,30.5026667 28.8066667,30.5026667 C28.8066667,30.5026667 18.6266667,35.676 13.9733333,25.7626667 Z" id="路径" fill="url(#linearGradient-4)"></path>
                    <path d="M38.5,16.5026667 C38.5,16.5026667 36.3533333,10.4226667 31.6533333,7.756 C31.4266667,7.62933333 31.2133333,7.52933333 31.02,7.44933333 L30.9933333,7.396 C30.9933333,7.396 22.2866667,1.96266667 13.0733333,8.98933333 C3.86,16.016 11.4866667,14.9026667 11.4866667,14.9026667 L15.52,14.9626667 C15.52,14.9626667 20.98,8.20266667 29.14,13.3426667 C30.6533333,14.6293333 37.6266667,21.3293333 29.9333333,29.416 C29.9333333,29.416 38.8733333,27.4226667 38.5,16.5026667 Z" id="路径" fill="url(#linearGradient-5)"></path>
                    <path d="M28.48,12.876 C28.48,12.876 22.6266667,6.52266667 13.2133333,9.10266667 C13.2133333,9.10266667 7.86,21.156 13.0733333,22.8493333 C13.0733333,22.8493333 12.14,17.7026667 16.8466667,13.6226667 C16.8533333,13.616 21.9133333,9.24933333 28.48,12.876 Z" id="路径" fill="url(#linearGradient-6)"></path>
                    <polygon id="路径" fill="url(#linearGradient-7)" points="7.05333333 3.516 13.0733333 0.122666667 13.0733333 22.8426667 7.05333333 22.8426667"></polygon>
                    <path d="M52.5933333,31.356 C52.5933333,31.3693333 52.5933333,31.3893333 52.5933333,31.416 C52.5933333,31.4426667 52.5866667,31.4693333 52.58,31.5026667 C52.5733333,31.536 52.5666667,31.5626667 52.5533333,31.596 C52.5466667,31.6293333 52.5333333,31.656 52.5133333,31.6826667 C52.5,31.7093333 52.48,31.7293333 52.4533333,31.7493333 C52.4333333,31.7626667 52.4066667,31.776 52.38,31.776 L50.3866667,31.776 L50.06,33.316 L51.78,33.316 C51.8133333,33.316 51.8333333,33.3293333 51.8533333,33.3493333 C51.8666667,33.3693333 51.88,33.4026667 51.88,33.4426667 C51.88,33.456 51.88,33.476 51.8733333,33.5026667 C51.8666667,33.5293333 51.8666667,33.556 51.86,33.5893333 C51.8533333,33.6226667 51.8466667,33.6493333 51.8333333,33.6826667 C51.82,33.716 51.8133333,33.7426667 51.7933333,33.7626667 C51.78,33.7893333 51.76,33.8093333 51.74,33.8226667 C51.72,33.836 51.6933333,33.8493333 51.6666667,33.8493333 L49.9533333,33.8493333 L49.58,35.6093333 L51.6133333,35.6093333 C51.64,35.6093333 51.66,35.6226667 51.68,35.6426667 C51.7,35.6626667 51.7066667,35.696 51.7066667,35.736 C51.7066667,35.7493333 51.7066667,35.776 51.7,35.8026667 C51.7,35.8293333 51.6933333,35.8626667 51.6866667,35.8893333 C51.68,35.9226667 51.6733333,35.9493333 51.66,35.9826667 C51.6533333,36.016 51.64,36.0426667 51.62,36.0693333 C51.6066667,36.096 51.5866667,36.116 51.56,36.1293333 C51.54,36.1426667 51.5133333,36.1493333 51.4866667,36.1493333 L49.0333333,36.1493333 C49.0066667,36.1493333 48.9733333,36.1426667 48.9466667,36.136 C48.92,36.1293333 48.8933333,36.1093333 48.8733333,36.0893333 C48.8533333,36.0693333 48.84,36.0426667 48.8333333,36.0093333 C48.8266667,35.976 48.8266667,35.936 48.84,35.8893333 L49.7533333,31.5093333 C49.7733333,31.4093333 49.8133333,31.3426667 49.8733333,31.3026667 C49.9333333,31.2626667 50,31.2426667 50.06,31.2426667 L52.48,31.2426667 C52.5666667,31.2293333 52.5933333,31.276 52.5933333,31.356 Z" id="路径" fill="#FFFFFF"></path>
                    <path d="M55.5066667,36.0493333 C55.4933333,36.096 55.4666667,36.1226667 55.42,36.1426667 C55.3733333,36.1626667 55.2933333,36.1693333 55.1866667,36.1693333 C55.1333333,36.1693333 55.0933333,36.1693333 55.0533333,36.1626667 C55.02,36.156 54.9933333,36.1493333 54.9733333,36.1426667 C54.9533333,36.136 54.94,36.1226667 54.9266667,36.1093333 C54.92,36.096 54.92,36.076 54.9266667,36.056 L55.06,35.4093333 C55.0266667,35.4893333 54.9666667,35.576 54.8733333,35.676 C54.7866667,35.7693333 54.68,35.8626667 54.5533333,35.9426667 C54.4333333,36.0226667 54.2933333,36.0893333 54.1466667,36.1426667 C53.9933333,36.196 53.8466667,36.2226667 53.6866667,36.2226667 C53.4733333,36.2226667 53.3,36.1893333 53.1666667,36.116 C53.0266667,36.0426667 52.92,35.9493333 52.84,35.836 C52.76,35.7226667 52.7,35.5893333 52.6733333,35.4426667 C52.64,35.296 52.6266667,35.1426667 52.6266667,34.9893333 C52.6266667,34.8493333 52.64,34.6893333 52.6666667,34.5093333 C52.6933333,34.3293333 52.74,34.1493333 52.8,33.956 C52.86,33.7693333 52.94,33.5893333 53.04,33.4093333 C53.14,33.2293333 53.26,33.076 53.4,32.936 C53.54,32.796 53.7,32.6826667 53.8866667,32.596 C54.0733333,32.5093333 54.28,32.4693333 54.5133333,32.4693333 C54.7466667,32.4693333 54.9466667,32.516 55.1133333,32.6093333 C55.28,32.7026667 55.4266667,32.8226667 55.56,32.9826667 L55.6333333,32.636 C55.6466667,32.596 55.6733333,32.5693333 55.7266667,32.5493333 C55.7733333,32.5293333 55.8533333,32.5226667 55.96,32.5226667 C56.0133333,32.5226667 56.06,32.5226667 56.0933333,32.5293333 C56.1266667,32.536 56.16,32.5426667 56.18,32.5493333 C56.2,32.5626667 56.2133333,32.5693333 56.22,32.5893333 C56.2266667,32.6026667 56.2266667,32.6226667 56.2266667,32.636 L55.5066667,36.0493333 Z M55.38,33.5226667 C55.2533333,33.3493333 55.12,33.216 54.98,33.1293333 C54.8333333,33.0426667 54.6733333,32.996 54.4933333,32.996 C54.3533333,32.996 54.22,33.0293333 54.1066667,33.0893333 C53.9933333,33.156 53.8933333,33.2426667 53.8,33.3426667 C53.7133333,33.4493333 53.6333333,33.5693333 53.5733333,33.7026667 C53.5066667,33.836 53.4533333,33.976 53.4133333,34.1226667 C53.3733333,34.2693333 53.34,34.4093333 53.32,34.5493333 C53.3,34.6893333 53.2933333,34.816 53.2933333,34.9226667 C53.2933333,35.0093333 53.3,35.096 53.3133333,35.1893333 C53.3266667,35.276 53.3533333,35.356 53.3933333,35.4293333 C53.4333333,35.5026667 53.4933333,35.5626667 53.56,35.6026667 C53.6333333,35.6493333 53.72,35.6693333 53.8333333,35.6693333 C53.98,35.6693333 54.1266667,35.6293333 54.2666667,35.556 C54.4133333,35.476 54.5466667,35.3693333 54.6733333,35.236 C54.8,35.096 54.9133333,34.936 55.0066667,34.756 C55.1066667,34.5693333 55.1733333,34.3693333 55.2266667,34.1426667 L55.38,33.5226667 Z" id="形状" fill="#FFFFFF"></path>
                    <path d="M59.4,32.816 C59.4,32.8426667 59.3933333,32.876 59.3866667,32.916 C59.38,32.956 59.3666667,32.996 59.3533333,33.0426667 C59.34,33.0826667 59.32,33.116 59.3,33.1426667 C59.28,33.1693333 59.26,33.1826667 59.2333333,33.1826667 C59.2,33.1826667 59.1666667,33.1693333 59.12,33.1493333 C59.0733333,33.1226667 59.02,33.096 58.96,33.0693333 C58.9,33.036 58.82,33.0093333 58.7333333,32.9826667 C58.6466667,32.956 58.54,32.9426667 58.42,32.9426667 C58.3066667,32.9426667 58.2,32.956 58.1133333,32.9893333 C58.0266667,33.0226667 57.9466667,33.0626667 57.8866667,33.116 C57.8266667,33.1693333 57.78,33.2293333 57.7466667,33.3026667 C57.7133333,33.3693333 57.7,33.4426667 57.7,33.5226667 C57.7,33.6226667 57.7333333,33.7093333 57.8066667,33.776 C57.8733333,33.8426667 57.9666667,33.9026667 58.0666667,33.956 C58.1733333,34.0093333 58.2866667,34.0626667 58.4066667,34.116 C58.5266667,34.1693333 58.64,34.2293333 58.7466667,34.3026667 C58.8533333,34.376 58.94,34.4693333 59.0066667,34.5693333 C59.0733333,34.676 59.1133333,34.8093333 59.1133333,34.9693333 C59.1133333,35.1493333 59.08,35.3093333 59.0066667,35.4626667 C58.9333333,35.616 58.8333333,35.7493333 58.6933333,35.856 C58.56,35.9693333 58.3933333,36.0493333 58.2,36.116 C58.0066667,36.176 57.7933333,36.2093333 57.56,36.2093333 C57.4333333,36.2093333 57.32,36.2026667 57.2133333,36.1826667 C57.1066667,36.1626667 57.0066667,36.1426667 56.92,36.116 C56.8333333,36.0893333 56.7533333,36.056 56.6933333,36.0226667 C56.6333333,35.9893333 56.58,35.956 56.5466667,35.9293333 C56.5266667,35.9093333 56.5133333,35.8893333 56.5,35.8693333 C56.4933333,35.8493333 56.4866667,35.8226667 56.4866667,35.7893333 C56.4866667,35.7693333 56.4866667,35.7426667 56.4933333,35.716 C56.4933333,35.6893333 56.5,35.656 56.5066667,35.6293333 C56.5133333,35.596 56.52,35.5693333 56.5333333,35.5426667 C56.54,35.516 56.5533333,35.4893333 56.5666667,35.4693333 C56.58,35.4493333 56.5933333,35.4293333 56.6066667,35.416 C56.62,35.4026667 56.6333333,35.396 56.6533333,35.396 C56.6866667,35.396 56.72,35.416 56.7666667,35.4493333 C56.8133333,35.4826667 56.8666667,35.5226667 56.94,35.5626667 C57.0133333,35.6026667 57.1,35.636 57.2133333,35.6693333 C57.32,35.7026667 57.4533333,35.7226667 57.6133333,35.7226667 C57.76,35.7226667 57.88,35.7026667 57.9866667,35.6693333 C58.0933333,35.636 58.18,35.5893333 58.2466667,35.536 C58.3133333,35.476 58.3666667,35.4093333 58.4,35.336 C58.4333333,35.2626667 58.4466667,35.1826667 58.4466667,35.096 C58.4466667,34.9893333 58.4133333,34.9026667 58.3466667,34.836 C58.28,34.7693333 58.1933333,34.7093333 58.0866667,34.656 C57.98,34.6026667 57.8733333,34.5493333 57.7466667,34.496 C57.6266667,34.4426667 57.5133333,34.3826667 57.4066667,34.3093333 C57.3,34.236 57.2133333,34.1493333 57.1466667,34.0426667 C57.08,33.936 57.04,33.8026667 57.04,33.6426667 C57.04,33.476 57.0733333,33.3226667 57.14,33.176 C57.2066667,33.036 57.3066667,32.9093333 57.4266667,32.8026667 C57.5533333,32.696 57.7,32.616 57.8733333,32.556 C58.0466667,32.496 58.24,32.4693333 58.4533333,32.4693333 C58.5533333,32.4693333 58.6466667,32.476 58.7466667,32.4893333 C58.84,32.5026667 58.9266667,32.5226667 59.0066667,32.5493333 C59.0866667,32.5693333 59.1533333,32.596 59.2133333,32.6226667 C59.2733333,32.6493333 59.3133333,32.676 59.3466667,32.7093333 C59.3866667,32.7226667 59.4,32.7626667 59.4,32.816 Z" id="路径" fill="#FFFFFF"></path>
                    <path d="M62.3066667,32.6693333 C62.3066667,32.6893333 62.3066667,32.716 62.3,32.7426667 C62.3,32.7693333 62.2933333,32.796 62.2866667,32.8226667 C62.28,32.8493333 62.2666667,32.876 62.2533333,32.9093333 C62.24,32.936 62.2266667,32.9626667 62.2133333,32.9826667 C62.2,33.0026667 62.18,33.0226667 62.1666667,33.036 C62.1466667,33.0493333 62.1266667,33.056 62.1066667,33.056 L61.2,33.056 L60.8,34.9626667 C60.7866667,35.016 60.78,35.076 60.7733333,35.1426667 C60.7666667,35.2093333 60.76,35.2626667 60.76,35.3093333 C60.76,35.436 60.7866667,35.5293333 60.8466667,35.5893333 C60.9,35.6493333 60.9933333,35.676 61.12,35.676 C61.1933333,35.676 61.2533333,35.6693333 61.3066667,35.656 C61.36,35.6426667 61.4066667,35.6293333 61.44,35.6226667 C61.48,35.6093333 61.5133333,35.596 61.54,35.5893333 C61.5666667,35.576 61.5933333,35.5693333 61.6133333,35.5693333 C61.6333333,35.5693333 61.6533333,35.576 61.66,35.5893333 C61.6733333,35.6026667 61.68,35.6293333 61.68,35.6693333 C61.68,35.7026667 61.68,35.736 61.6666667,35.776 C61.66,35.816 61.6533333,35.856 61.64,35.8893333 C61.6266667,35.9293333 61.6133333,35.9626667 61.6,35.9893333 C61.5866667,36.0226667 61.5666667,36.0426667 61.5466667,36.0626667 C61.5266667,36.0826667 61.4933333,36.096 61.4533333,36.116 C61.4133333,36.136 61.36,36.1493333 61.3066667,36.1626667 C61.2533333,36.176 61.1933333,36.1893333 61.1333333,36.196 C61.0733333,36.2026667 61.0133333,36.2093333 60.9466667,36.2093333 C60.8,36.2093333 60.6733333,36.196 60.5666667,36.1626667 C60.46,36.1293333 60.3666667,36.0826667 60.2933333,36.0226667 C60.22,35.956 60.1666667,35.876 60.1266667,35.7826667 C60.0933333,35.6826667 60.0733333,35.5693333 60.0733333,35.4293333 C60.0733333,35.396 60.0733333,35.3626667 60.08,35.3293333 C60.08,35.296 60.0866667,35.256 60.0933333,35.216 C60.1,35.176 60.1066667,35.136 60.1133333,35.096 C60.12,35.056 60.1266667,35.016 60.1333333,34.9826667 L60.5333333,33.0626667 L60.04,33.0626667 C60.0133333,33.0626667 59.9866667,33.056 59.9733333,33.036 C59.96,33.0226667 59.9466667,32.9893333 59.9466667,32.9426667 C59.9466667,32.9093333 59.9533333,32.8693333 59.96,32.816 C59.9666667,32.7693333 59.98,32.7226667 59.9933333,32.6826667 C60.0066667,32.6426667 60.0266667,32.6093333 60.0533333,32.5826667 C60.08,32.556 60.1066667,32.5426667 60.14,32.5426667 L60.64,32.5426667 L60.8066667,31.7293333 C60.8066667,31.7093333 60.82,31.696 60.8333333,31.6826667 C60.8466667,31.6693333 60.8666667,31.656 60.8933333,31.6426667 C60.92,31.6293333 60.9533333,31.6226667 61,31.616 C61.04,31.6093333 61.1,31.6093333 61.16,31.6093333 C61.22,31.6093333 61.2733333,31.6093333 61.3133333,31.616 C61.3533333,31.6226667 61.3866667,31.6293333 61.4066667,31.6426667 C61.4266667,31.656 61.4466667,31.6693333 61.4533333,31.6826667 C61.46,31.696 61.46,31.716 61.46,31.7293333 L61.2933333,32.5426667 L62.2,32.5426667 C62.24,32.5426667 62.2666667,32.556 62.28,32.5826667 C62.3,32.6026667 62.3066667,32.636 62.3066667,32.6693333 Z" id="路径" fill="#FFFFFF"></path>
                    <path d="M65.78,33.3293333 C65.78,33.5026667 65.74,33.6626667 65.6533333,33.8026667 C65.5666667,33.9426667 65.44,34.0626667 65.26,34.1626667 C65.08,34.2626667 64.8533333,34.336 64.5733333,34.3893333 C64.2933333,34.4426667 63.96,34.4693333 63.5733333,34.4693333 L63.1533333,34.4693333 C63.1333333,34.556 63.12,34.636 63.1133333,34.7093333 C63.1066667,34.7893333 63.1,34.8626667 63.1,34.9293333 C63.1,35.1826667 63.1666667,35.376 63.2933333,35.5093333 C63.4266667,35.6426667 63.6333333,35.7093333 63.9266667,35.7093333 C64.0933333,35.7093333 64.2466667,35.696 64.38,35.676 C64.5133333,35.6493333 64.6333333,35.6293333 64.7266667,35.596 C64.8266667,35.5693333 64.9066667,35.5426667 64.9666667,35.516 C65.0266667,35.4893333 65.0733333,35.4826667 65.1,35.4826667 C65.1266667,35.4826667 65.14,35.4893333 65.1533333,35.5093333 C65.1666667,35.5226667 65.1733333,35.5493333 65.1733333,35.5826667 C65.1733333,35.6093333 65.1733333,35.636 65.1666667,35.676 C65.16,35.7093333 65.1533333,35.7493333 65.14,35.7826667 C65.1266667,35.8226667 65.1133333,35.856 65.1,35.8893333 C65.08,35.9226667 65.0666667,35.9493333 65.04,35.976 C65.0066667,36.0093333 64.9533333,36.036 64.8733333,36.0626667 C64.7933333,36.0893333 64.7,36.116 64.5866667,36.1426667 C64.4733333,36.1693333 64.3533333,36.1893333 64.2266667,36.2026667 C64.0933333,36.216 63.96,36.2226667 63.8333333,36.2226667 C63.6,36.2226667 63.3933333,36.196 63.22,36.1493333 C63.0466667,36.096 62.9,36.0226667 62.78,35.916 C62.66,35.8093333 62.5733333,35.6826667 62.52,35.5226667 C62.46,35.3626667 62.4333333,35.1826667 62.4333333,34.9693333 C62.4333333,34.8026667 62.4466667,34.6293333 62.48,34.4426667 C62.5133333,34.256 62.5666667,34.0693333 62.6333333,33.8826667 C62.7066667,33.696 62.7933333,33.5226667 62.9066667,33.3493333 C63.02,33.1826667 63.1533333,33.0293333 63.3133333,32.9026667 C63.4666667,32.776 63.6533333,32.6693333 63.8533333,32.5893333 C64.06,32.5093333 64.2933333,32.4693333 64.5466667,32.4693333 C64.7666667,32.4693333 64.9533333,32.496 65.1066667,32.5493333 C65.26,32.6026667 65.3866667,32.6693333 65.4866667,32.756 C65.5866667,32.8426667 65.66,32.936 65.7,33.036 C65.76,33.1293333 65.78,33.2293333 65.78,33.3293333 Z M65.1133333,33.3893333 C65.1133333,33.2626667 65.06,33.156 64.9533333,33.076 C64.8466667,32.996 64.7,32.956 64.5066667,32.956 C64.3333333,32.956 64.1866667,32.9826667 64.0533333,33.0426667 C63.92,33.1026667 63.8066667,33.176 63.7066667,33.2693333 C63.6066667,33.3626667 63.52,33.476 63.4466667,33.6026667 C63.3733333,33.7293333 63.3133333,33.8626667 63.2733333,34.0093333 L63.6733333,34.0093333 C63.9466667,34.0093333 64.18,33.996 64.3666667,33.9626667 C64.5533333,33.9293333 64.7,33.8826667 64.8133333,33.8293333 C64.9266667,33.7693333 65.0066667,33.7026667 65.0533333,33.6293333 C65.0866667,33.5493333 65.1133333,33.4693333 65.1133333,33.3893333 Z" id="形状" fill="#FFFFFF"></path>
                    <path d="M68.9666667,32.636 C68.9666667,32.6493333 68.9666667,32.6693333 68.96,32.696 C68.9533333,32.7226667 68.9533333,32.756 68.9466667,32.796 C68.94,32.836 68.9333333,32.876 68.92,32.916 C68.9066667,32.956 68.8933333,32.996 68.88,33.0293333 C68.8666667,33.0626667 68.8466667,33.0893333 68.8333333,33.116 C68.8133333,33.136 68.8,33.1493333 68.7733333,33.1493333 C68.7533333,33.1493333 68.7266667,33.1426667 68.7066667,33.136 C68.68,33.1293333 68.6533333,33.116 68.6266667,33.1026667 C68.5933333,33.0893333 68.56,33.076 68.52,33.0693333 C68.48,33.0626667 68.4333333,33.056 68.38,33.056 C68.2933333,33.056 68.1866667,33.096 68.0733333,33.1693333 C67.9533333,33.2426667 67.84,33.3493333 67.7266667,33.476 C67.6133333,33.6093333 67.5133333,33.7626667 67.42,33.9426667 C67.3266667,34.1226667 67.26,34.316 67.2133333,34.5293333 L66.9,36.0493333 C66.8933333,36.0693333 66.8866667,36.0893333 66.8733333,36.1026667 C66.86,36.116 66.84,36.1293333 66.8133333,36.136 C66.7866667,36.1493333 66.7533333,36.156 66.7066667,36.156 C66.6666667,36.1626667 66.6066667,36.1626667 66.5466667,36.1626667 C66.48,36.1626667 66.4266667,36.1626667 66.3866667,36.156 C66.3466667,36.1493333 66.3133333,36.1426667 66.2933333,36.136 C66.2733333,36.1226667 66.2533333,36.116 66.2533333,36.1026667 C66.2466667,36.0893333 66.2466667,36.0693333 66.2533333,36.0493333 L66.96,32.6293333 C66.96,32.6093333 66.9733333,32.596 66.9866667,32.5826667 C67,32.5693333 67.02,32.556 67.0466667,32.5426667 C67.0733333,32.5293333 67.1066667,32.5226667 67.1466667,32.5226667 C67.1866667,32.516 67.2266667,32.516 67.28,32.516 C67.3333333,32.516 67.38,32.516 67.4133333,32.5226667 C67.4466667,32.5293333 67.4733333,32.536 67.4933333,32.5426667 C67.5133333,32.556 67.5266667,32.5626667 67.5333333,32.5826667 C67.54,32.596 67.54,32.616 67.54,32.6293333 L67.4066667,33.2493333 C67.4666667,33.1426667 67.54,33.0426667 67.62,32.9493333 C67.7,32.856 67.7933333,32.7693333 67.8933333,32.696 C67.9933333,32.6226667 68.0933333,32.5693333 68.2,32.5226667 C68.3066667,32.4826667 68.4133333,32.456 68.5133333,32.456 C68.56,32.456 68.6066667,32.456 68.6466667,32.4626667 C68.6933333,32.4693333 68.7333333,32.476 68.7733333,32.4826667 C68.8133333,32.4893333 68.8466667,32.5026667 68.88,32.516 C68.9133333,32.5293333 68.9333333,32.5426667 68.9466667,32.556 C68.9533333,32.576 68.9666667,32.6026667 68.9666667,32.636 Z" id="路径" fill="#FFFFFF"></path>
                    <path d="M72.4866667,33.3893333 C72.4866667,33.476 72.48,33.5626667 72.4733333,33.6493333 C72.46,33.736 72.4466667,33.8226667 72.4266667,33.916 L71.98,36.0493333 C71.9733333,36.0693333 71.9666667,36.0893333 71.9533333,36.1026667 C71.94,36.116 71.92,36.1293333 71.8933333,36.136 C71.8666667,36.1493333 71.8333333,36.156 71.7866667,36.156 C71.7466667,36.1626667 71.6933333,36.1626667 71.6266667,36.1626667 C71.5666667,36.1626667 71.5133333,36.1626667 71.4733333,36.156 C71.4333333,36.1493333 71.4,36.1426667 71.38,36.136 C71.36,36.1226667 71.34,36.116 71.3333333,36.1026667 C71.3266667,36.0893333 71.3266667,36.0693333 71.3266667,36.0493333 L71.7666667,33.936 C71.7866667,33.856 71.8,33.7826667 71.8066667,33.7093333 C71.8133333,33.636 71.8133333,33.5693333 71.8133333,33.516 C71.8133333,33.3626667 71.78,33.236 71.7133333,33.1426667 C71.6466667,33.0493333 71.5333333,33.0026667 71.3666667,33.0026667 C71.2266667,33.0026667 71.0866667,33.0426667 70.94,33.116 C70.7933333,33.196 70.66,33.3026667 70.5333333,33.436 C70.4066667,33.5693333 70.3,33.7293333 70.2,33.916 C70.1,34.1026667 70.0266667,34.3026667 69.9866667,34.5226667 L69.6733333,36.0493333 C69.6666667,36.0693333 69.66,36.0893333 69.6466667,36.1026667 C69.6333333,36.116 69.6133333,36.1293333 69.5866667,36.136 C69.56,36.1493333 69.5266667,36.156 69.48,36.156 C69.4333333,36.1626667 69.38,36.1626667 69.32,36.1626667 C69.2533333,36.1626667 69.2,36.1626667 69.16,36.156 C69.12,36.1493333 69.0866667,36.1426667 69.0666667,36.136 C69.0466667,36.1226667 69.0266667,36.116 69.0266667,36.1026667 C69.02,36.0893333 69.02,36.0693333 69.0266667,36.0493333 L69.74,32.6293333 C69.74,32.6093333 69.7533333,32.596 69.76,32.5826667 C69.7733333,32.5693333 69.7933333,32.556 69.8133333,32.5426667 C69.84,32.5293333 69.8666667,32.5226667 69.9066667,32.5226667 C69.9466667,32.516 69.9866667,32.516 70.04,32.516 C70.0933333,32.516 70.14,32.516 70.1733333,32.5226667 C70.2066667,32.5293333 70.2333333,32.536 70.2533333,32.5426667 C70.2733333,32.556 70.2866667,32.5626667 70.2933333,32.5826667 C70.3,32.596 70.3,32.616 70.3,32.6293333 L70.1666667,33.2826667 C70.2066667,33.196 70.2733333,33.1026667 70.36,33.0093333 C70.4466667,32.916 70.5533333,32.8226667 70.68,32.7426667 C70.8066667,32.6626667 70.94,32.596 71.0866667,32.5426667 C71.2333333,32.4893333 71.3866667,32.4626667 71.5533333,32.4626667 C71.7266667,32.4626667 71.88,32.4893333 71.9933333,32.5426667 C72.1133333,32.596 72.2066667,32.6626667 72.28,32.7493333 C72.3533333,32.836 72.4066667,32.9293333 72.44,33.0426667 C72.4666667,33.1493333 72.4866667,33.2626667 72.4866667,33.3893333 Z" id="路径" fill="#FFFFFF"></path>
                    <path d="M76.5333333,34.9626667 C76.4933333,35.1426667 76.4466667,35.3093333 76.38,35.4626667 C76.3133333,35.616 76.2266667,35.7493333 76.1266667,35.8626667 C76.02,35.976 75.8933333,36.0626667 75.7466667,36.1226667 C75.6,36.1893333 75.42,36.216 75.2133333,36.216 C75.0866667,36.216 74.9733333,36.2093333 74.8733333,36.1893333 C74.7733333,36.1693333 74.6866667,36.1426667 74.6133333,36.116 C74.5466667,36.0826667 74.5,36.056 74.48,36.0293333 C74.46,36.0026667 74.4533333,35.9693333 74.4533333,35.936 C74.4533333,35.916 74.4533333,35.896 74.46,35.8626667 C74.4666667,35.8293333 74.4666667,35.8026667 74.4733333,35.7693333 C74.48,35.736 74.4866667,35.7026667 74.5,35.6693333 C74.5133333,35.636 74.5266667,35.6026667 74.54,35.576 C74.5533333,35.5493333 74.5666667,35.5226667 74.58,35.5093333 C74.5933333,35.4893333 74.6133333,35.4826667 74.6333333,35.4826667 C74.66,35.4826667 74.6933333,35.4893333 74.72,35.5093333 C74.7466667,35.5293333 74.7866667,35.5493333 74.8266667,35.5693333 C74.8666667,35.5893333 74.92,35.6093333 74.9733333,35.6293333 C75.0333333,35.6493333 75.1,35.656 75.1866667,35.656 C75.2866667,35.656 75.3733333,35.6426667 75.44,35.616 C75.5133333,35.5893333 75.5733333,35.5493333 75.6266667,35.4893333 C75.68,35.4293333 75.72,35.356 75.76,35.2626667 C75.8,35.1693333 75.8266667,35.0493333 75.86,34.916 L76.6,31.3426667 C76.6,31.3226667 76.6133333,31.3093333 76.6266667,31.296 C76.64,31.2826667 76.6666667,31.2693333 76.6933333,31.256 C76.72,31.2426667 76.76,31.236 76.8,31.236 C76.8466667,31.2293333 76.9,31.2293333 76.9666667,31.2293333 C77.0266667,31.2293333 77.08,31.2293333 77.12,31.236 C77.16,31.2426667 77.1933333,31.2493333 77.22,31.256 C77.2466667,31.2626667 77.26,31.276 77.2733333,31.2893333 C77.2866667,31.3026667 77.2866667,31.3226667 77.2866667,31.3426667 L76.5333333,34.9626667 Z" id="路径" fill="#FFFFFF"></path>
                    <path d="M78.2266667,36.0493333 C78.22,36.0693333 78.2133333,36.0893333 78.2,36.1026667 C78.1866667,36.116 78.1666667,36.1293333 78.14,36.136 C78.1133333,36.1493333 78.08,36.156 78.0333333,36.156 C77.9933333,36.1626667 77.94,36.1626667 77.8733333,36.1626667 C77.8066667,36.1626667 77.7533333,36.1626667 77.7133333,36.156 C77.6733333,36.1493333 77.64,36.1426667 77.62,36.136 C77.6,36.1226667 77.58,36.116 77.5733333,36.1026667 C77.5666667,36.0893333 77.5666667,36.0693333 77.5733333,36.0493333 L78.28,32.6293333 C78.28,32.6093333 78.2933333,32.596 78.3066667,32.5826667 C78.32,32.5693333 78.34,32.556 78.3666667,32.5426667 C78.3933333,32.5293333 78.4266667,32.5226667 78.4733333,32.5226667 C78.5133333,32.516 78.5733333,32.516 78.64,32.516 C78.7,32.516 78.7533333,32.516 78.7933333,32.5226667 C78.8333333,32.5293333 78.8666667,32.536 78.8866667,32.5426667 C78.9066667,32.556 78.9266667,32.5626667 78.9266667,32.5826667 C78.9333333,32.596 78.9333333,32.616 78.9333333,32.6293333 L78.2266667,36.0493333 Z M79.2466667,31.4826667 C79.2333333,31.556 79.2133333,31.616 79.1933333,31.6626667 C79.1733333,31.7093333 79.14,31.7493333 79.1066667,31.776 C79.0666667,31.8026667 79.0266667,31.8293333 78.9666667,31.836 C78.9133333,31.8493333 78.8466667,31.856 78.7666667,31.856 C78.6933333,31.856 78.6266667,31.8493333 78.58,31.836 C78.5333333,31.8226667 78.4933333,31.8026667 78.4666667,31.776 C78.44,31.7493333 78.4266667,31.7093333 78.4266667,31.6626667 C78.4266667,31.616 78.4266667,31.556 78.44,31.4826667 C78.4533333,31.4093333 78.4733333,31.356 78.5,31.3093333 C78.5266667,31.2626667 78.5533333,31.2226667 78.5866667,31.1893333 C78.62,31.156 78.6666667,31.136 78.72,31.1226667 C78.7733333,31.1093333 78.84,31.1026667 78.92,31.1026667 C78.9933333,31.1026667 79.06,31.1093333 79.1066667,31.1226667 C79.1533333,31.136 79.1933333,31.156 79.22,31.1893333 C79.2466667,31.2226667 79.26,31.2626667 79.26,31.3093333 C79.2733333,31.3493333 79.2666667,31.4093333 79.2466667,31.4826667 Z" id="形状" fill="#FFFFFF"></path>
                    <path d="M82.9,33.3893333 C82.9,33.476 82.8933333,33.5626667 82.8866667,33.6493333 C82.8733333,33.736 82.86,33.8226667 82.84,33.916 L82.3933333,36.0493333 C82.3866667,36.0693333 82.38,36.0893333 82.3666667,36.1026667 C82.3533333,36.116 82.3333333,36.1293333 82.3066667,36.136 C82.28,36.1493333 82.2466667,36.156 82.2,36.156 C82.16,36.1626667 82.1066667,36.1626667 82.04,36.1626667 C81.98,36.1626667 81.9266667,36.1626667 81.8866667,36.156 C81.8466667,36.1493333 81.8133333,36.1426667 81.7933333,36.136 C81.7733333,36.1226667 81.7533333,36.116 81.7466667,36.1026667 C81.74,36.0893333 81.74,36.0693333 81.74,36.0493333 L82.18,33.936 C82.2,33.856 82.2133333,33.7826667 82.22,33.7093333 C82.2266667,33.636 82.2266667,33.5693333 82.2266667,33.516 C82.2266667,33.3626667 82.1933333,33.236 82.1266667,33.1426667 C82.06,33.0493333 81.9466667,33.0026667 81.78,33.0026667 C81.64,33.0026667 81.5,33.0426667 81.3533333,33.116 C81.2066667,33.196 81.0733333,33.3026667 80.9466667,33.436 C80.82,33.5693333 80.7133333,33.7293333 80.6133333,33.916 C80.5133333,34.1026667 80.44,34.3026667 80.4,34.5226667 L80.0866667,36.0493333 C80.08,36.0693333 80.0733333,36.0893333 80.06,36.1026667 C80.0466667,36.116 80.0266667,36.1293333 80,36.136 C79.9733333,36.1493333 79.94,36.156 79.8933333,36.156 C79.8466667,36.1626667 79.7933333,36.1626667 79.7333333,36.1626667 C79.6666667,36.1626667 79.6133333,36.1626667 79.5733333,36.156 C79.5333333,36.1493333 79.5,36.1426667 79.48,36.136 C79.46,36.1226667 79.44,36.116 79.4333333,36.1026667 C79.4266667,36.0893333 79.4266667,36.0693333 79.4333333,36.0493333 L80.1466667,32.6293333 C80.1466667,32.6093333 80.16,32.596 80.1666667,32.5826667 C80.18,32.5693333 80.2,32.556 80.22,32.5426667 C80.2466667,32.5293333 80.2733333,32.5226667 80.3133333,32.5226667 C80.3533333,32.516 80.3933333,32.516 80.4466667,32.516 C80.5,32.516 80.5466667,32.516 80.58,32.5226667 C80.6133333,32.5293333 80.64,32.536 80.66,32.5426667 C80.68,32.556 80.6933333,32.5626667 80.7,32.5826667 C80.7066667,32.596 80.7066667,32.616 80.7066667,32.6293333 L80.5733333,33.2826667 C80.6133333,33.196 80.68,33.1026667 80.7666667,33.0093333 C80.8533333,32.916 80.96,32.8226667 81.0866667,32.7426667 C81.2133333,32.6626667 81.3466667,32.596 81.4933333,32.5426667 C81.64,32.4893333 81.7933333,32.4626667 81.96,32.4626667 C82.1333333,32.4626667 82.2866667,32.4893333 82.4,32.5426667 C82.52,32.596 82.6133333,32.6626667 82.6866667,32.7493333 C82.76,32.836 82.8133333,32.9293333 82.8466667,33.0426667 C82.88,33.1493333 82.9,33.2626667 82.9,33.3893333 Z" id="路径" fill="#FFFFFF"></path>
                    <path d="M89.6533333,31.3626667 C89.6533333,31.376 89.6533333,31.396 89.6533333,31.4226667 C89.6533333,31.4493333 89.6466667,31.476 89.64,31.5093333 C89.6333333,31.5426667 89.6266667,31.5693333 89.6133333,31.6026667 C89.6,31.636 89.5866667,31.6693333 89.5733333,31.6893333 C89.56,31.716 89.54,31.736 89.5133333,31.7493333 C89.4933333,31.7626667 89.4666667,31.776 89.44,31.776 L88.0066667,31.776 L87.12,36.036 C87.1133333,36.056 87.1066667,36.076 87.0933333,36.0893333 C87.08,36.1026667 87.06,36.116 87.0333333,36.1226667 C87.0066667,36.1293333 86.9666667,36.136 86.9266667,36.1426667 C86.88,36.1493333 86.8266667,36.1493333 86.76,36.1493333 C86.6933333,36.1493333 86.64,36.1493333 86.6,36.1426667 C86.56,36.136 86.5266667,36.1293333 86.5,36.1226667 C86.4733333,36.116 86.46,36.1026667 86.4533333,36.0893333 C86.4466667,36.076 86.4466667,36.056 86.4466667,36.036 L87.3333333,31.776 L85.9066667,31.776 C85.8666667,31.776 85.8466667,31.7626667 85.8333333,31.7426667 C85.82,31.7226667 85.8133333,31.6893333 85.8133333,31.6493333 C85.8133333,31.6293333 85.8133333,31.6093333 85.82,31.5826667 C85.8266667,31.556 85.8266667,31.5293333 85.8333333,31.496 C85.84,31.4626667 85.8466667,31.4293333 85.86,31.4026667 C85.8733333,31.3693333 85.8866667,31.3426667 85.9,31.316 C85.9133333,31.2893333 85.9333333,31.2693333 85.9533333,31.2493333 C85.9733333,31.236 85.9933333,31.2226667 86.02,31.2226667 L89.5733333,31.2226667 C89.6066667,31.2226667 89.6333333,31.236 89.6466667,31.256 C89.6466667,31.2893333 89.6533333,31.3226667 89.6533333,31.3626667 Z" id="路径" fill="#FFFFFF"></path>
                    <path d="M92.06,33.3293333 C92.06,33.5026667 92.02,33.6626667 91.9333333,33.8026667 C91.8466667,33.9426667 91.72,34.0626667 91.54,34.1626667 C91.36,34.2626667 91.1333333,34.336 90.8533333,34.3893333 C90.5733333,34.4426667 90.24,34.4693333 89.8533333,34.4693333 L89.4333333,34.4693333 C89.4133333,34.556 89.4,34.636 89.3933333,34.7093333 C89.3866667,34.7893333 89.38,34.8626667 89.38,34.9293333 C89.38,35.1826667 89.4466667,35.376 89.5733333,35.5093333 C89.7066667,35.6426667 89.9133333,35.7093333 90.2066667,35.7093333 C90.3733333,35.7093333 90.5266667,35.696 90.66,35.676 C90.7933333,35.6493333 90.9133333,35.6293333 91.0066667,35.596 C91.1066667,35.5693333 91.1866667,35.5426667 91.2466667,35.516 C91.3066667,35.4893333 91.3533333,35.4826667 91.38,35.4826667 C91.4066667,35.4826667 91.42,35.4893333 91.4333333,35.5093333 C91.4466667,35.5226667 91.4533333,35.5493333 91.4533333,35.5826667 C91.4533333,35.6093333 91.4533333,35.636 91.4466667,35.676 C91.44,35.7093333 91.4333333,35.7493333 91.42,35.7826667 C91.4066667,35.8226667 91.3933333,35.856 91.38,35.8893333 C91.36,35.9226667 91.3466667,35.9493333 91.32,35.976 C91.2866667,36.0093333 91.2333333,36.036 91.1533333,36.0626667 C91.0733333,36.0893333 90.98,36.116 90.8666667,36.1426667 C90.7533333,36.1693333 90.6333333,36.1893333 90.5066667,36.2026667 C90.3733333,36.216 90.24,36.2226667 90.1133333,36.2226667 C89.88,36.2226667 89.6733333,36.196 89.5,36.1493333 C89.3266667,36.096 89.18,36.0226667 89.06,35.916 C88.94,35.8093333 88.8533333,35.6826667 88.8,35.5226667 C88.74,35.3626667 88.7133333,35.1826667 88.7133333,34.9693333 C88.7133333,34.8026667 88.7266667,34.6293333 88.76,34.4426667 C88.7933333,34.256 88.8466667,34.0693333 88.9133333,33.8826667 C88.9866667,33.696 89.0733333,33.5226667 89.1866667,33.3493333 C89.3,33.1826667 89.4333333,33.0293333 89.5933333,32.9026667 C89.7466667,32.776 89.9333333,32.6693333 90.1333333,32.5893333 C90.34,32.5093333 90.5733333,32.4693333 90.8266667,32.4693333 C91.0466667,32.4693333 91.2333333,32.496 91.3866667,32.5493333 C91.54,32.6026667 91.6666667,32.6693333 91.7666667,32.756 C91.8666667,32.8426667 91.94,32.936 91.98,33.036 C92.04,33.1293333 92.06,33.2293333 92.06,33.3293333 Z M91.3933333,33.3893333 C91.3933333,33.2626667 91.34,33.156 91.2333333,33.076 C91.1266667,32.996 90.98,32.956 90.7866667,32.956 C90.6133333,32.956 90.4666667,32.9826667 90.3333333,33.0426667 C90.2,33.1026667 90.0866667,33.176 89.9866667,33.2693333 C89.8866667,33.3626667 89.8,33.476 89.7266667,33.6026667 C89.6533333,33.7293333 89.5933333,33.8626667 89.5533333,34.0093333 L89.9533333,34.0093333 C90.2266667,34.0093333 90.46,33.996 90.6466667,33.9626667 C90.8333333,33.9293333 90.98,33.8826667 91.0933333,33.8293333 C91.2066667,33.7693333 91.2866667,33.7026667 91.3266667,33.6293333 C91.3733333,33.5493333 91.3933333,33.4693333 91.3933333,33.3893333 Z" id="形状" fill="#FFFFFF"></path>
                    <path d="M95.64,32.9293333 C95.64,32.976 95.6333333,33.0226667 95.6266667,33.0693333 C95.62,33.116 95.6066667,33.1626667 95.5866667,33.2026667 C95.5666667,33.2426667 95.5466667,33.276 95.52,33.3093333 C95.4933333,33.336 95.4666667,33.3493333 95.4333333,33.3493333 C95.3933333,33.3493333 95.36,33.3293333 95.32,33.296 C95.28,33.256 95.2266667,33.216 95.1666667,33.1693333 C95.1,33.1226667 95.02,33.0826667 94.92,33.0426667 C94.82,33.0026667 94.6933333,32.9826667 94.54,32.9826667 C94.3733333,32.9826667 94.22,33.016 94.0933333,33.0826667 C93.96,33.1493333 93.8466667,33.236 93.7533333,33.3426667 C93.66,33.4493333 93.58,33.5693333 93.5133333,33.7093333 C93.4533333,33.8493333 93.4,33.9826667 93.36,34.1226667 C93.32,34.2626667 93.2933333,34.396 93.2733333,34.5293333 C93.2533333,34.6626667 93.2466667,34.776 93.2466667,34.8693333 C93.2466667,35.1293333 93.3066667,35.3293333 93.4266667,35.4626667 C93.5466667,35.596 93.72,35.6626667 93.9533333,35.6626667 C94.1266667,35.6626667 94.2733333,35.6426667 94.3933333,35.6026667 C94.5133333,35.5626667 94.62,35.516 94.7066667,35.4626667 C94.7933333,35.4093333 94.86,35.3626667 94.92,35.3226667 C94.9733333,35.2826667 95.0266667,35.2626667 95.0666667,35.2626667 C95.0866667,35.2626667 95.1066667,35.2693333 95.1133333,35.2893333 C95.1266667,35.3093333 95.1333333,35.336 95.1333333,35.3693333 C95.1333333,35.4026667 95.1333333,35.436 95.1266667,35.476 C95.12,35.516 95.1133333,35.5626667 95.1,35.6026667 C95.0866667,35.6493333 95.0733333,35.6893333 95.06,35.7293333 C95.04,35.7693333 95.02,35.8026667 94.9866667,35.836 C94.9533333,35.8693333 94.9,35.9093333 94.82,35.9493333 C94.74,35.996 94.6466667,36.036 94.5466667,36.076 C94.44,36.116 94.3333333,36.1426667 94.2066667,36.1693333 C94.0866667,36.196 93.96,36.2026667 93.8333333,36.2026667 C93.4066667,36.2026667 93.0933333,36.096 92.8866667,35.8893333 C92.68,35.6826667 92.5733333,35.376 92.5733333,34.9626667 C92.5733333,34.8093333 92.5866667,34.6426667 92.6133333,34.456 C92.64,34.2693333 92.6866667,34.0893333 92.7533333,33.9026667 C92.82,33.716 92.9066667,33.536 93.0066667,33.3626667 C93.1066667,33.1893333 93.2333333,33.036 93.3866667,32.896 C93.5333333,32.7626667 93.7133333,32.6493333 93.9066667,32.5693333 C94.1066667,32.4893333 94.3333333,32.4493333 94.5866667,32.4493333 C94.6933333,32.4493333 94.7933333,32.456 94.8933333,32.476 C94.9933333,32.4893333 95.08,32.516 95.1666667,32.5426667 C95.2533333,32.5693333 95.3266667,32.6026667 95.4,32.6493333 C95.4666667,32.6893333 95.5266667,32.7293333 95.56,32.7626667 C95.6,32.796 95.62,32.8226667 95.6333333,32.8493333 C95.64,32.876 95.64,32.9026667 95.64,32.9293333 Z" id="路径" fill="#FFFFFF"></path>
                    <path d="M98.86,36.0493333 C98.8533333,36.0693333 98.8466667,36.0893333 98.8333333,36.1026667 C98.82,36.116 98.8,36.1293333 98.7733333,36.136 C98.7466667,36.1426667 98.7133333,36.156 98.6666667,36.156 C98.6266667,36.1626667 98.5733333,36.1626667 98.5066667,36.1626667 C98.4466667,36.1626667 98.3933333,36.1626667 98.3533333,36.156 C98.3133333,36.1493333 98.28,36.1426667 98.26,36.136 C98.24,36.1226667 98.22,36.116 98.2133333,36.1026667 C98.2066667,36.0893333 98.2066667,36.0693333 98.2066667,36.0493333 L98.6466667,33.936 C98.66,33.8693333 98.6733333,33.796 98.68,33.716 C98.6866667,33.636 98.6933333,33.5626667 98.6933333,33.5026667 C98.6933333,33.4293333 98.6866667,33.3626667 98.6666667,33.3026667 C98.6533333,33.2426667 98.6266667,33.1893333 98.5866667,33.1426667 C98.5533333,33.096 98.5066667,33.0626667 98.4466667,33.036 C98.3866667,33.0093333 98.32,32.996 98.24,32.996 C98.1,32.996 97.96,33.036 97.8133333,33.116 C97.6666667,33.196 97.5333333,33.3026667 97.4066667,33.4426667 C97.28,33.5826667 97.1733333,33.7426667 97.0733333,33.9293333 C96.9733333,34.116 96.9,34.316 96.86,34.536 L96.5466667,36.0493333 C96.54,36.0693333 96.5333333,36.0893333 96.52,36.1026667 C96.5066667,36.116 96.4866667,36.1293333 96.46,36.136 C96.4333333,36.1493333 96.4,36.156 96.3533333,36.156 C96.3133333,36.1626667 96.2533333,36.1626667 96.1933333,36.1626667 C96.1266667,36.1626667 96.0733333,36.1626667 96.0333333,36.156 C95.9933333,36.1493333 95.96,36.1426667 95.94,36.136 C95.92,36.1226667 95.9,36.116 95.9,36.1026667 C95.8933333,36.0893333 95.8933333,36.0693333 95.9,36.0493333 L96.9466667,30.976 C96.9533333,30.956 96.96,30.936 96.9733333,30.9226667 C96.9866667,30.9093333 97.0066667,30.896 97.0333333,30.8826667 C97.06,30.8693333 97.0933333,30.8626667 97.14,30.8626667 C97.18,30.856 97.24,30.856 97.3066667,30.856 C97.3666667,30.856 97.42,30.856 97.46,30.8626667 C97.5,30.8693333 97.5333333,30.876 97.5533333,30.8826667 C97.5733333,30.896 97.5866667,30.9026667 97.5933333,30.9226667 C97.6,30.936 97.6,30.956 97.6,30.976 L97.2866667,32.5226667 C97.2733333,32.5893333 97.26,32.656 97.24,32.7226667 C97.22,32.7893333 97.2,32.856 97.18,32.9293333 C97.16,32.996 97.14,33.0626667 97.12,33.1226667 C97.1,33.1826667 97.08,33.236 97.0666667,33.2826667 C97.1066667,33.196 97.1733333,33.1026667 97.2666667,33.0093333 C97.3533333,32.916 97.46,32.8293333 97.58,32.7493333 C97.7,32.6693333 97.8333333,32.6026667 97.98,32.5493333 C98.1266667,32.496 98.2733333,32.4693333 98.4333333,32.4693333 C98.6,32.4693333 98.7466667,32.496 98.8666667,32.536 C98.9866667,32.5826667 99.08,32.6493333 99.16,32.7293333 C99.2333333,32.8093333 99.2866667,32.9093333 99.3266667,33.0226667 C99.3666667,33.136 99.38,33.2626667 99.38,33.3893333 C99.38,33.4826667 99.3733333,33.5693333 99.3666667,33.656 C99.3533333,33.7426667 99.34,33.8293333 99.32,33.916 L98.86,36.0493333 Z" id="路径" fill="#FFFFFF"></path>
                    <path d="M103.513333,33.3893333 C103.513333,33.476 103.506667,33.5626667 103.5,33.6493333 C103.486667,33.736 103.473333,33.8226667 103.453333,33.916 L103.006667,36.0493333 C103,36.0693333 102.993333,36.0893333 102.98,36.1026667 C102.966667,36.116 102.946667,36.1293333 102.92,36.136 C102.893333,36.1493333 102.86,36.156 102.813333,36.156 C102.773333,36.1626667 102.72,36.1626667 102.653333,36.1626667 C102.593333,36.1626667 102.54,36.1626667 102.5,36.156 C102.46,36.1493333 102.426667,36.1426667 102.406667,36.136 C102.386667,36.1226667 102.366667,36.116 102.36,36.1026667 C102.353333,36.0893333 102.353333,36.0693333 102.353333,36.0493333 L102.793333,33.936 C102.813333,33.856 102.826667,33.7826667 102.833333,33.7093333 C102.84,33.636 102.84,33.5693333 102.84,33.516 C102.84,33.3626667 102.806667,33.236 102.74,33.1426667 C102.673333,33.0493333 102.56,33.0026667 102.393333,33.0026667 C102.253333,33.0026667 102.113333,33.0426667 101.966667,33.116 C101.82,33.196 101.686667,33.3026667 101.56,33.436 C101.433333,33.5693333 101.32,33.7293333 101.226667,33.916 C101.126667,34.1026667 101.053333,34.3026667 101.013333,34.5226667 L100.7,36.0493333 C100.693333,36.0693333 100.686667,36.0893333 100.673333,36.1026667 C100.66,36.116 100.64,36.1293333 100.613333,36.136 C100.586667,36.1493333 100.553333,36.156 100.506667,36.156 C100.466667,36.1626667 100.406667,36.1626667 100.346667,36.1626667 C100.28,36.1626667 100.226667,36.1626667 100.186667,36.156 C100.146667,36.1493333 100.113333,36.1426667 100.093333,36.136 C100.073333,36.1226667 100.053333,36.116 100.053333,36.1026667 C100.046667,36.0893333 100.046667,36.0693333 100.053333,36.0493333 L100.766667,32.6293333 C100.766667,32.6093333 100.78,32.596 100.786667,32.5826667 C100.8,32.5693333 100.82,32.556 100.84,32.5426667 C100.866667,32.5293333 100.893333,32.5226667 100.933333,32.5226667 C100.973333,32.516 101.013333,32.516 101.066667,32.516 C101.12,32.516 101.166667,32.516 101.2,32.5226667 C101.233333,32.5293333 101.26,32.536 101.28,32.5426667 C101.3,32.556 101.313333,32.5626667 101.32,32.5826667 C101.326667,32.596 101.326667,32.616 101.326667,32.6293333 L101.193333,33.2826667 C101.233333,33.196 101.3,33.1026667 101.386667,33.0093333 C101.473333,32.916 101.58,32.8226667 101.706667,32.7426667 C101.833333,32.6626667 101.966667,32.596 102.113333,32.5426667 C102.26,32.4893333 102.413333,32.4626667 102.58,32.4626667 C102.753333,32.4626667 102.906667,32.4893333 103.02,32.5426667 C103.14,32.596 103.233333,32.6626667 103.306667,32.7493333 C103.38,32.836 103.433333,32.9293333 103.466667,33.0426667 C103.5,33.1493333 103.513333,33.2626667 103.513333,33.3893333 Z" id="路径" fill="#FFFFFF"></path>
                    <path d="M107.8,33.7626667 C107.8,33.9493333 107.78,34.1426667 107.746667,34.336 C107.706667,34.5293333 107.653333,34.716 107.58,34.9026667 C107.506667,35.0826667 107.406667,35.256 107.293333,35.416 C107.18,35.576 107.04,35.716 106.886667,35.836 C106.733333,35.956 106.553333,36.0493333 106.353333,36.116 C106.153333,36.1826667 105.933333,36.2226667 105.686667,36.2226667 C105.433333,36.2226667 105.22,36.196 105.04,36.136 C104.86,36.076 104.713333,35.996 104.593333,35.8826667 C104.473333,35.7693333 104.393333,35.636 104.34,35.4693333 C104.286667,35.3093333 104.26,35.1226667 104.26,34.916 C104.26,34.7293333 104.28,34.536 104.313333,34.3426667 C104.346667,34.1493333 104.406667,33.9626667 104.48,33.7826667 C104.553333,33.6026667 104.653333,33.436 104.766667,33.2693333 C104.88,33.1093333 105.02,32.9693333 105.173333,32.8493333 C105.326667,32.7293333 105.506667,32.636 105.706667,32.5693333 C105.906667,32.5026667 106.126667,32.4626667 106.373333,32.4626667 C106.626667,32.4626667 106.84,32.4893333 107.02,32.5493333 C107.2,32.6093333 107.346667,32.696 107.466667,32.8026667 C107.586667,32.916 107.666667,33.0493333 107.726667,33.216 C107.773333,33.376 107.8,33.5626667 107.8,33.7626667 Z M107.113333,33.8026667 C107.113333,33.676 107.1,33.5626667 107.073333,33.4626667 C107.046667,33.3626667 107,33.276 106.933333,33.2093333 C106.866667,33.1426667 106.786667,33.0826667 106.68,33.0493333 C106.573333,33.0093333 106.453333,32.9893333 106.3,32.9893333 C106.14,32.9893333 106,33.016 105.866667,33.0693333 C105.74,33.1226667 105.62,33.196 105.52,33.2893333 C105.42,33.3826667 105.333333,33.4893333 105.253333,33.616 C105.18,33.7426667 105.113333,33.8693333 105.066667,34.016 C105.02,34.156 104.98,34.3026667 104.96,34.4493333 C104.933333,34.596 104.926667,34.7426667 104.926667,34.8826667 C104.926667,35.0093333 104.94,35.1226667 104.973333,35.2226667 C105,35.3226667 105.046667,35.4093333 105.113333,35.4826667 C105.18,35.556 105.26,35.6093333 105.366667,35.6493333 C105.466667,35.6893333 105.593333,35.7093333 105.74,35.7093333 C105.9,35.7093333 106.046667,35.6826667 106.173333,35.6293333 C106.3,35.576 106.413333,35.5026667 106.513333,35.4093333 C106.613333,35.316 106.7,35.2093333 106.78,35.0826667 C106.853333,34.956 106.92,34.8226667 106.966667,34.6826667 C107.013333,34.5426667 107.053333,34.396 107.073333,34.2493333 C107.1,34.0893333 107.113333,33.9426667 107.113333,33.8026667 Z" id="形状" fill="#FFFFFF"></path>
                    <path d="M109,36.0493333 C108.993333,36.0693333 108.986667,36.0893333 108.973333,36.1026667 C108.96,36.116 108.94,36.1293333 108.913333,36.136 C108.886667,36.1493333 108.853333,36.156 108.806667,36.156 C108.766667,36.1626667 108.713333,36.1626667 108.646667,36.1626667 C108.58,36.1626667 108.526667,36.1626667 108.486667,36.156 C108.446667,36.1493333 108.413333,36.1426667 108.393333,36.136 C108.373333,36.1226667 108.353333,36.116 108.353333,36.1026667 C108.346667,36.0893333 108.346667,36.0693333 108.353333,36.0493333 L109.4,30.976 C109.406667,30.956 109.413333,30.936 109.426667,30.9226667 C109.44,30.9093333 109.46,30.896 109.486667,30.8826667 C109.513333,30.8693333 109.546667,30.8626667 109.593333,30.8626667 C109.633333,30.856 109.693333,30.856 109.76,30.856 C109.82,30.856 109.873333,30.856 109.913333,30.8626667 C109.953333,30.8693333 109.986667,30.876 110.006667,30.8826667 C110.026667,30.896 110.04,30.9026667 110.046667,30.9226667 C110.053333,30.936 110.053333,30.956 110.053333,30.976 L109,36.0493333 Z" id="路径" fill="#FFFFFF"></path>
                    <path d="M113.8,33.7626667 C113.8,33.9493333 113.78,34.1426667 113.746667,34.336 C113.706667,34.5293333 113.653333,34.716 113.58,34.9026667 C113.506667,35.0826667 113.406667,35.256 113.293333,35.416 C113.18,35.576 113.04,35.716 112.886667,35.836 C112.733333,35.956 112.553333,36.0493333 112.353333,36.116 C112.153333,36.1826667 111.933333,36.2226667 111.686667,36.2226667 C111.433333,36.2226667 111.22,36.196 111.04,36.136 C110.86,36.076 110.713333,35.996 110.593333,35.8826667 C110.473333,35.7693333 110.393333,35.636 110.34,35.4693333 C110.286667,35.3093333 110.26,35.1226667 110.26,34.916 C110.26,34.7293333 110.28,34.536 110.313333,34.3426667 C110.346667,34.1493333 110.406667,33.9626667 110.48,33.7826667 C110.553333,33.6026667 110.653333,33.436 110.766667,33.2693333 C110.88,33.1093333 111.02,32.9693333 111.173333,32.8493333 C111.326667,32.7293333 111.506667,32.636 111.706667,32.5693333 C111.906667,32.5026667 112.126667,32.4626667 112.373333,32.4626667 C112.626667,32.4626667 112.84,32.4893333 113.02,32.5493333 C113.2,32.6093333 113.346667,32.696 113.466667,32.8026667 C113.586667,32.916 113.666667,33.0493333 113.726667,33.216 C113.773333,33.376 113.8,33.5626667 113.8,33.7626667 Z M113.113333,33.8026667 C113.113333,33.676 113.1,33.5626667 113.073333,33.4626667 C113.046667,33.3626667 113,33.276 112.933333,33.2093333 C112.866667,33.1426667 112.786667,33.0826667 112.68,33.0493333 C112.573333,33.0093333 112.453333,32.9893333 112.3,32.9893333 C112.14,32.9893333 112,33.016 111.866667,33.0693333 C111.74,33.1226667 111.62,33.196 111.52,33.2893333 C111.42,33.3826667 111.333333,33.4893333 111.253333,33.616 C111.18,33.7426667 111.113333,33.8693333 111.066667,34.016 C111.02,34.156 110.98,34.3026667 110.96,34.4493333 C110.933333,34.596 110.926667,34.7426667 110.926667,34.8826667 C110.926667,35.0093333 110.94,35.1226667 110.973333,35.2226667 C111,35.3226667 111.046667,35.4093333 111.113333,35.4826667 C111.18,35.556 111.26,35.6093333 111.366667,35.6493333 C111.466667,35.6893333 111.593333,35.7093333 111.74,35.7093333 C111.9,35.7093333 112.046667,35.6826667 112.173333,35.6293333 C112.3,35.576 112.413333,35.5026667 112.513333,35.4093333 C112.613333,35.316 112.7,35.2093333 112.78,35.0826667 C112.853333,34.956 112.92,34.8226667 112.966667,34.6826667 C113.013333,34.5426667 113.053333,34.396 113.073333,34.2493333 C113.106667,34.0893333 113.113333,33.9426667 113.113333,33.8026667 Z" id="形状" fill="#FFFFFF"></path>
                    <path d="M117.24,36.316 C117.2,36.516 117.133333,36.696 117.04,36.8493333 C116.946667,37.0026667 116.826667,37.1293333 116.68,37.2293333 C116.533333,37.3293333 116.366667,37.4026667 116.166667,37.456 C115.966667,37.5093333 115.74,37.5293333 115.486667,37.5293333 C115.266667,37.5293333 115.066667,37.5093333 114.886667,37.4693333 C114.706667,37.4293333 114.56,37.376 114.453333,37.316 C114.413333,37.2893333 114.386667,37.2693333 114.373333,37.2426667 C114.36,37.216 114.353333,37.1893333 114.353333,37.1493333 C114.353333,37.136 114.353333,37.1093333 114.353333,37.0826667 C114.353333,37.056 114.36,37.0293333 114.366667,36.996 C114.373333,36.9693333 114.38,36.936 114.393333,36.9093333 C114.4,36.876 114.413333,36.8493333 114.426667,36.8293333 C114.44,36.8026667 114.46,36.7893333 114.48,36.7693333 C114.5,36.756 114.52,36.7493333 114.546667,36.7493333 C114.58,36.7493333 114.62,36.7626667 114.666667,36.7893333 C114.713333,36.816 114.78,36.8426667 114.853333,36.876 C114.933333,36.9093333 115.033333,36.936 115.146667,36.9693333 C115.266667,36.996 115.406667,37.0093333 115.58,37.0093333 C115.72,37.0093333 115.853333,36.996 115.966667,36.9693333 C116.08,36.9426667 116.18,36.9026667 116.266667,36.8426667 C116.353333,36.7893333 116.42,36.716 116.473333,36.6293333 C116.526667,36.5426667 116.566667,36.4426667 116.593333,36.3226667 C116.64,36.0893333 116.68,35.9026667 116.726667,35.7493333 C116.773333,35.596 116.806667,35.4826667 116.84,35.396 C116.8,35.4893333 116.733333,35.5826667 116.64,35.676 C116.546667,35.7693333 116.44,35.856 116.32,35.936 C116.2,36.016 116.066667,36.0826667 115.92,36.1293333 C115.773333,36.176 115.626667,36.2026667 115.48,36.2026667 C115.28,36.2026667 115.113333,36.1693333 114.98,36.1093333 C114.84,36.0493333 114.733333,35.956 114.653333,35.8493333 C114.573333,35.736 114.513333,35.6093333 114.473333,35.456 C114.433333,35.3026667 114.42,35.1426667 114.42,34.9693333 C114.42,34.8226667 114.433333,34.656 114.46,34.476 C114.486667,34.2893333 114.533333,34.1093333 114.6,33.9226667 C114.66,33.736 114.746667,33.556 114.84,33.3826667 C114.94,33.2093333 115.06,33.0493333 115.2,32.9093333 C115.34,32.7693333 115.5,32.6626667 115.686667,32.576 C115.866667,32.4893333 116.08,32.4493333 116.306667,32.4493333 C116.54,32.4493333 116.74,32.496 116.906667,32.5893333 C117.073333,32.6826667 117.22,32.8026667 117.353333,32.9626667 L117.426667,32.616 C117.44,32.576 117.466667,32.5493333 117.52,32.5293333 C117.566667,32.5093333 117.646667,32.5026667 117.753333,32.5026667 C117.806667,32.5026667 117.846667,32.5026667 117.886667,32.5093333 C117.92,32.516 117.953333,32.5226667 117.973333,32.5293333 C117.993333,32.5426667 118.006667,32.5493333 118.013333,32.5693333 C118.02,32.5826667 118.02,32.6026667 118.02,32.616 L117.24,36.316 Z M117.173333,33.5226667 C117.046667,33.3493333 116.913333,33.216 116.773333,33.1293333 C116.626667,33.0426667 116.466667,32.996 116.286667,32.996 C116.146667,32.996 116.02,33.0293333 115.906667,33.0893333 C115.793333,33.1493333 115.693333,33.236 115.606667,33.3426667 C115.52,33.4493333 115.44,33.5693333 115.373333,33.7026667 C115.306667,33.8426667 115.253333,33.9826667 115.213333,34.1226667 C115.173333,34.2626667 115.14,34.4093333 115.12,34.5493333 C115.1,34.6893333 115.093333,34.816 115.093333,34.9293333 C115.093333,35.036 115.106667,35.136 115.12,35.2293333 C115.14,35.3226667 115.173333,35.396 115.213333,35.4626667 C115.26,35.5293333 115.313333,35.576 115.38,35.616 C115.453333,35.656 115.533333,35.676 115.633333,35.676 C115.78,35.676 115.92,35.636 116.066667,35.5626667 C116.213333,35.4826667 116.346667,35.376 116.473333,35.2426667 C116.6,35.1026667 116.713333,34.9426667 116.806667,34.756 C116.906667,34.5693333 116.973333,34.3693333 117.026667,34.1493333 L117.173333,33.5226667 Z" id="形状" fill="#FFFFFF"></path>
                    <path d="M121.926667,32.6026667 C121.926667,32.6293333 121.926667,32.656 121.92,32.6893333 C121.913333,32.716 121.906667,32.7426667 121.893333,32.7693333 C121.806667,33.0026667 121.713333,33.2426667 121.606667,33.4893333 C121.506667,33.736 121.386667,34.0026667 121.246667,34.2693333 C121.106667,34.5426667 120.953333,34.8226667 120.766667,35.1226667 C120.586667,35.416 120.366667,35.7293333 120.113333,36.056 L119.093333,37.396 C119.08,37.416 119.06,37.436 119.033333,37.4493333 C119.006667,37.4626667 118.98,37.476 118.946667,37.4893333 C118.913333,37.5026667 118.873333,37.5093333 118.82,37.516 C118.773333,37.5226667 118.713333,37.5226667 118.646667,37.5226667 C118.573333,37.5226667 118.52,37.5226667 118.473333,37.516 C118.426667,37.5093333 118.393333,37.496 118.366667,37.4826667 C118.34,37.4693333 118.333333,37.4493333 118.333333,37.4226667 C118.333333,37.396 118.353333,37.3693333 118.38,37.3293333 L119.34,36.1426667 L118.753333,32.8026667 C118.746667,32.7693333 118.746667,32.7426667 118.74,32.716 C118.74,32.6893333 118.733333,32.6693333 118.733333,32.6493333 C118.733333,32.6226667 118.74,32.596 118.746667,32.576 C118.753333,32.556 118.773333,32.5426667 118.8,32.5293333 C118.826667,32.516 118.86,32.5093333 118.906667,32.5093333 C118.953333,32.5026667 119.006667,32.5026667 119.066667,32.5026667 C119.14,32.5026667 119.193333,32.5026667 119.233333,32.5093333 C119.273333,32.516 119.306667,32.5226667 119.326667,32.5293333 C119.346667,32.536 119.366667,32.5493333 119.373333,32.5693333 C119.38,32.5893333 119.386667,32.6093333 119.393333,32.636 L119.853333,35.4226667 L119.86,35.4226667 C120.02,35.2026667 120.173333,34.976 120.3,34.7493333 C120.433333,34.5226667 120.553333,34.2893333 120.66,34.056 C120.773333,33.8226667 120.873333,33.5826667 120.966667,33.3426667 C121.06,33.1026667 121.146667,32.8626667 121.226667,32.616 C121.233333,32.596 121.24,32.576 121.253333,32.5626667 C121.266667,32.5493333 121.286667,32.536 121.313333,32.5293333 C121.34,32.516 121.38,32.5093333 121.426667,32.5093333 C121.473333,32.5026667 121.533333,32.5026667 121.606667,32.5026667 C121.726667,32.5026667 121.806667,32.5093333 121.846667,32.5226667 C121.906667,32.5493333 121.926667,32.576 121.926667,32.6026667 Z" id="路径" fill="#FFFFFF"></path>
                    <path d="M52.74,6.92266667 C53.3733333,6.496 53.6933333,6.60266667 53.6933333,7.24266667 L52.9,9.00933333 L64.32,9.00933333 C64.8466667,9.32933333 64.8466667,9.64933333 64.32,9.976 L52.4266667,9.976 C51.26,12.116 50.1533333,13.8293333 49.0933333,15.116 C48.6666667,15.6493333 48.9333333,15.8693333 49.8866667,15.756 L55.28,15.756 L55.28,12.2226667 C55.6,11.6893333 55.9133333,11.6893333 56.2333333,12.2226667 L56.2333333,15.756 L63.2133333,15.756 C63.74,16.076 63.74,16.396 63.2133333,16.7226667 L56.2333333,16.7226667 L56.2333333,24.2693333 C55.8066667,25.7693333 54.22,26.036 51.4733333,25.076 C51.26,24.436 51.42,24.1093333 51.9466667,24.1093333 C54.06,24.9626667 55.1733333,24.856 55.28,23.7893333 L55.28,16.7226667 L49.2533333,16.7226667 C47.56,16.8293333 47.14,16.2426667 47.9866667,14.956 C49.36,13.2426667 50.4733333,11.5826667 51.32,9.976 L46.4,9.976 C45.8733333,9.656 45.8733333,9.336 46.4,9.00933333 L51.7933333,9.00933333 L52.74,6.92266667 Z M51.6266667,18.3293333 C50.5666667,21.0093333 49.14,23.256 47.3466667,25.076 C46.7133333,25.2893333 46.4466667,25.076 46.5533333,24.436 C48.46,22.4026667 49.8333333,20.256 50.68,18.0093333 C51.2,17.5826667 51.52,17.6893333 51.6266667,18.3293333 Z M59.4,18.0093333 C59.4,17.476 59.6666667,17.2626667 60.1933333,17.3693333 C61.78,19.7293333 63.1,22.0826667 64.16,24.436 C64.0533333,25.1826667 63.7333333,25.2893333 63.2066667,24.756 C62.1466667,22.616 60.88,20.3626667 59.4,18.0093333 Z" id="形状" fill="#FFFFFF"></path>
                    <path d="M75.42,6.92266667 C76.0533333,7.88933333 76.48,8.68933333 76.6866667,9.32933333 L84.7733333,9.32933333 C85.3,9.64933333 85.3,9.96933333 84.7733333,10.296 L73.0333333,10.296 C72.9266667,11.6893333 72.82,12.8693333 72.7133333,13.8293333 L81.12,13.8293333 C82.6,13.8293333 83.2866667,14.4693333 83.18,15.756 C83.2866667,17.7893333 83.0733333,20.0426667 82.5466667,22.5026667 C82.02,24.7493333 80.8533333,25.9293333 79.06,26.036 C76.9466667,25.9293333 75.2,25.556 73.8266667,24.9093333 C73.5066667,24.376 73.6666667,24.1093333 74.3,24.1093333 C75.9933333,24.7493333 77.58,25.076 79.06,25.076 C80.3266667,24.9693333 81.1733333,24.0026667 81.6,22.1826667 C82.1266667,19.8293333 82.34,17.736 82.2333333,15.916 C82.34,15.1693333 81.9133333,14.7893333 80.9666667,14.7893333 L72.56,14.7893333 C71.9266667,19.6093333 70.0733333,23.3026667 67.0066667,25.876 C66.3733333,25.9826667 66.16,25.7693333 66.3733333,25.236 C69.9666667,22.1293333 71.8733333,17.1493333 72.0866667,10.296 L66.3733333,10.296 C65.9466667,9.976 65.9466667,9.656 66.3733333,9.32933333 L75.7333333,9.32933333 C75.4133333,8.68933333 75.0466667,8.04266667 74.62,7.40266667 C74.6266667,6.76266667 74.8933333,6.60266667 75.42,6.92266667 Z" id="路径" fill="#FFFFFF"></path>
                    <path d="M95.4066667,7.24933333 C95.7266667,6.92933333 96.0933333,6.92933333 96.52,7.24933333 C99.48,9.92933333 102.333333,11.7493333 105.086667,12.7093333 C105.506667,13.2426667 105.406667,13.5693333 104.766667,13.676 C102.02,12.7093333 99.16,10.9426667 96.2,8.376 C95.9866667,8.16266667 95.7733333,8.216 95.5666667,8.536 C93.1333333,10.896 90.3333333,12.496 87.16,13.356 C86.5266667,13.1426667 86.4733333,12.8226667 87,12.3893333 C90.1733333,11.5293333 92.9733333,9.816 95.4066667,7.24933333 Z M89.54,13.0293333 L102.226667,13.0293333 C102.753333,13.3493333 102.753333,13.6693333 102.226667,13.996 L96.5133333,13.996 L96.5133333,16.8893333 L103.493333,16.8893333 C103.913333,17.2093333 103.913333,17.5293333 103.493333,17.856 L96.5133333,17.856 L96.5133333,24.6026667 L99.0533333,24.6026667 C99.9,22.7826667 100.64,20.856 101.273333,18.8226667 C101.693333,18.396 102.013333,18.4493333 102.226667,18.9826667 C101.593333,21.016 100.906667,22.8893333 100.166667,24.6026667 L104.133333,24.6026667 C104.553333,24.9226667 104.553333,25.2426667 104.133333,25.5693333 L87.6333333,25.5693333 C87.2066667,25.2493333 87.2066667,24.9293333 87.6333333,24.6026667 L91.76,24.6026667 C91.44,23.2093333 90.7533333,21.336 89.7,18.9826667 C89.9133333,18.4493333 90.2266667,18.3426667 90.6533333,18.6626667 C91.5,20.4826667 92.24,22.4626667 92.8733333,24.6093333 L95.5666667,24.6093333 L95.5666667,17.8626667 L88.2733333,17.8626667 C87.7466667,17.5426667 87.7466667,17.2226667 88.2733333,16.896 L95.5666667,16.896 L95.5666667,14.0026667 L89.54,14.0026667 C89.1133333,13.6693333 89.1133333,13.3493333 89.54,13.0293333 Z" id="形状" fill="#FFFFFF"></path>
                    <path d="M110.313333,7.08266667 C110.733333,6.54933333 111.053333,6.60266667 111.266667,7.24266667 C111.053333,8.636 110.633333,10.456 110,12.7026667 L110,25.556 C109.68,26.0893333 109.366667,26.0893333 109.046667,25.556 L109.046667,14.796 C108.62,15.7626667 108.04,16.616 107.3,17.3693333 C106.773333,17.476 106.56,17.2626667 106.666667,16.7293333 C108.466667,14.2626667 109.68,11.0493333 110.313333,7.08266667 Z M116.98,7.40933333 C116.98,6.76933333 117.246667,6.60933333 117.773333,6.92933333 C118.3,7.68266667 118.726667,8.42933333 119.04,9.176 L125.386667,9.176 C125.806667,9.496 125.806667,9.816 125.386667,10.1426667 L111.746667,10.1426667 C111.32,9.82266667 111.32,9.50266667 111.746667,9.176 L117.933333,9.176 C117.613333,8.52933333 117.293333,7.94266667 116.98,7.40933333 Z M112.693333,12.5493333 L123.953333,12.5493333 C124.373333,12.8693333 124.373333,13.1893333 123.953333,13.516 L112.693333,13.516 C112.273333,13.1893333 112.273333,12.8693333 112.693333,12.5493333 Z M112.693333,15.6026667 L123.953333,15.6026667 C124.373333,15.9226667 124.373333,16.2426667 123.953333,16.5693333 L112.693333,16.5693333 C112.273333,16.2426667 112.273333,15.9226667 112.693333,15.6026667 Z M114.12,18.8093333 L122.526667,18.8093333 C123.686667,18.8093333 124.22,19.3426667 124.113333,20.416 L124.113333,23.9493333 C124.22,25.1293333 123.686667,25.6626667 122.526667,25.556 L114.12,25.556 C113.06,25.6626667 112.533333,25.1293333 112.533333,23.9493333 L112.533333,20.416 C112.54,19.3493333 113.066667,18.8093333 114.12,18.8093333 Z M122.213333,19.776 L114.44,19.776 C113.806667,19.776 113.486667,20.096 113.486667,20.7426667 L113.486667,23.636 C113.486667,24.3826667 113.806667,24.7093333 114.44,24.6026667 L122.213333,24.6026667 C122.953333,24.7093333 123.273333,24.3893333 123.166667,23.636 L123.166667,20.7426667 C123.266667,20.096 122.953333,19.776 122.213333,19.776 Z" id="形状" fill="#FFFFFF"></path>
                </g>
            </g>
        </g>
    </g>
</svg>